<svg version="1.1" id="Layer_1" xmlns="http://www.w3.org/2000/svg" xmlns:xlink="http://www.w3.org/1999/xlink" x="0px" y="0px"
	 width="100%" viewBox="0 0 1069 359" enable-background="new 0 0 1069 359" xml:space="preserve">
<path fill="#D73367" opacity="1.000000" stroke="none" 
	d="
M823.531494,0.999999 
	C829.872437,3.081445 835.980469,4.668646 841.573914,7.335300 
	C859.690491,15.972350 870.566040,30.538982 874.953552,49.999466 
	C875.631409,53.006149 875.946350,56.156693 875.956238,59.242229 
	C876.041321,85.851891 876.017944,112.461899 876.037720,139.793945 
	C876.085876,140.688660 876.123230,140.861237 876.091980,141.494461 
	C876.015625,153.173172 876.044800,164.391541 875.956299,175.608963 
	C875.944275,177.129883 875.343201,178.646149 874.806763,180.101013 
	C874.598816,180.037476 874.165161,180.004303 874.165161,180.004303 
	C841.966125,158.404816 809.681335,136.931778 777.602539,115.155121 
	C760.305725,103.413193 751.992432,86.619881 750.931152,65.818962 
	C750.005127,47.669346 756.330750,32.179256 768.490234,19.425602 
	C777.611755,9.858313 789.200012,3.617982 802.832764,1.358847 
	C809.687622,1.000000 816.375305,1.000000 823.531494,0.999999 
z"/>
<path fill="#00205B" opacity="1.000000" stroke="none" 
	d="
M874.006287,180.328400 
	C874.165161,180.004303 874.598816,180.037476 874.993286,180.466095 
	C875.591797,182.846054 875.968323,184.796921 875.974060,186.748856 
	C876.054932,214.183105 876.085205,241.617493 876.127808,269.051849 
	C876.085205,278.366791 875.866211,287.684967 876.034790,296.996063 
	C876.451538,320.022125 866.048157,337.202240 847.459595,349.797516 
	C837.851074,356.308075 826.987488,359.286682 815.168579,359.602509 
	C814.250000,360.000000 813.500000,360.000000 812.375000,360.000000 
	C808.272766,359.342255 804.549011,358.663666 800.817688,358.030121 
	C776.115540,353.835999 756.039734,333.077606 751.977478,308.429962 
	C747.262756,279.823090 757.886169,258.021301 781.527405,242.163803 
	C802.707153,227.957321 824.087708,214.050507 845.335205,199.944565 
	C854.895081,193.597916 864.346680,187.088211 874.006287,180.328400 
z"/>
<path fill="#0BBBEF" opacity="1.000000" stroke="none" 
	d="
M876.160522,141.033813 
	C876.123230,140.861237 876.085876,140.688660 876.107666,140.257889 
	C887.994202,134.994766 899.824707,129.996811 911.648438,124.983177 
	C927.827820,118.122658 943.935120,111.085938 960.202209,104.440369 
	C971.171204,99.959221 982.140015,95.235779 993.504761,92.019485 
	C1012.596252,86.616386 1030.118286,91.619110 1045.643066,103.283554 
	C1059.331299,113.568100 1067.236084,127.518425 1069.635254,144.821014 
	C1070.000000,150.022095 1070.000000,155.044189 1070.000000,160.533142 
	C1067.352539,168.572769 1065.579224,176.605270 1061.886230,183.628296 
	C1052.450562,201.572479 1037.098267,211.632172 1017.103210,215.093201 
	C1005.927124,217.027725 995.278320,215.704315 984.384277,212.006683 
	C984.022339,211.995453 984.024658,212.063126 983.941528,211.755035 
	C983.259399,211.321594 982.660339,211.196243 981.741699,210.929596 
	C946.334900,187.536819 911.247742,164.285324 876.160522,141.033813 
z"/>
<path fill="#00205B" opacity="1.000000" stroke="none" 
	d="
M1.000000,97.468658 
	C7.998855,97.000000 15.000156,97.107712 21.995403,96.948860 
	C24.939011,96.882004 26.605511,97.815109 28.267609,100.452103 
	C45.748207,128.185913 63.429344,155.793335 81.069328,183.426575 
	C81.386337,183.923157 81.878876,184.307678 82.970657,185.469040 
	C82.970657,155.470062 82.970657,126.449783 82.970657,97.216682 
	C91.129738,97.216682 98.863419,97.216682 106.798599,97.216682 
	C106.798599,139.371231 106.798599,181.316681 106.798599,223.982697 
	C99.015915,223.982697 91.098381,224.091293 83.191101,223.855896 
	C82.108559,223.823654 80.800735,222.255020 80.062302,221.100311 
	C62.140209,193.074905 44.282143,165.008591 26.397533,136.959198 
	C26.248659,136.725693 25.895023,136.622772 25.180244,136.168777 
	C25.180244,165.457306 25.180244,194.449432 25.180244,224.000000 
	C17.142298,224.000000 9.539794,224.000000 1.468645,224.000000 
	C1.000000,181.979111 1.000000,139.958206 1.000000,97.468658 
z"/>
<path fill="#00205B" opacity="1.000000" stroke="none" 
	d="
M240.000000,145.000000 
	C240.000000,128.863083 240.000000,113.226158 240.000000,97.002640 
	C248.154953,97.002640 256.086792,96.910324 264.011169,97.111778 
	C265.080963,97.138969 266.517670,98.422882 267.101715,99.496346 
	C274.971222,113.960289 282.704285,128.498352 290.503235,143.000793 
	C295.852814,152.948486 301.252228,162.869370 307.176666,173.813232 
	C321.020538,148.061951 334.621948,122.761726 348.346802,97.231857 
	C356.630219,97.231857 365.035583,97.231857 373.721344,97.231857 
	C373.721344,139.325195 373.721344,181.379425 373.721344,223.717133 
	C366.009460,223.717133 358.276154,223.717133 350.148376,223.717133 
	C350.148376,195.342972 350.148376,166.970459 350.148376,138.597961 
	C349.874786,138.520844 349.601227,138.443726 349.327637,138.366608 
	C343.230194,149.809464 337.142456,161.257507 331.032104,172.693466 
	C326.392639,181.376648 321.723633,190.044022 317.071075,198.720200 
	C316.845886,199.140137 316.679108,199.935684 316.440308,199.953476 
	C311.068970,200.353012 305.677277,201.006546 300.323822,200.784149 
	C298.799133,200.720810 296.952454,198.302261 295.989990,196.557434 
	C291.777710,188.921036 287.885040,181.109299 283.784760,173.409958 
	C277.422607,161.463287 270.985870,149.556335 264.233826,136.986725 
	C264.233826,166.176025 264.233826,194.785263 264.233826,223.696075 
	C256.053040,223.696075 248.319534,223.696075 240.000000,223.696075 
	C240.000000,197.671387 240.000000,171.585693 240.000000,145.000000 
z"/>
<path fill="#00205B" opacity="1.000000" stroke="none" 
	d="
M592.119507,127.432541 
	C600.216187,127.736656 608.228088,127.444679 615.783386,129.161591 
	C627.931824,131.922287 632.531433,140.881866 632.882080,152.079773 
	C633.356445,167.230591 632.708679,182.414749 633.090149,197.570801 
	C633.408813,210.231400 626.119507,221.648026 613.610718,224.169739 
	C602.373169,226.435196 591.206360,227.457367 580.235962,223.889374 
	C575.434021,222.327591 571.193481,219.039764 567.000000,216.703979 
	C567.000000,216.303009 566.937317,217.094849 567.010376,217.873978 
	C567.431396,222.365067 565.975159,224.562469 560.915283,224.102005 
	C555.821472,223.638474 550.652649,224.000000 545.261108,224.000000 
	C545.261108,178.627579 545.261108,133.561661 545.261108,88.247650 
	C553.066589,88.247650 560.800781,88.247650 569.000000,88.247650 
	C569.000000,90.140297 569.000000,91.922562 569.000000,93.704826 
	C569.000000,126.536003 568.996704,159.367172 569.002258,192.198349 
	C569.003723,200.735565 572.265381,203.987015 580.804749,203.998688 
	C585.971069,204.005753 591.146118,203.806351 596.301941,204.039154 
	C608.077209,204.570877 609.361694,199.421143 609.866760,190.825623 
	C610.442505,181.026764 610.098999,171.166794 609.971375,161.335754 
	C609.850464,152.025009 605.672791,148.025970 596.415283,148.000687 
	C589.916138,147.982925 583.417053,147.972778 576.917969,147.948456 
	C576.801636,147.948029 576.685791,147.812622 575.964478,147.362488 
	C581.284363,140.782120 586.557068,134.260101 592.119507,127.432541 
z"/>
<path fill="#00205B" opacity="1.000000" stroke="none" 
	d="
M165.705048,139.790390 
	C169.208374,135.635361 172.316162,131.622681 175.738678,127.899277 
	C176.958679,126.572037 178.891724,125.239006 180.584763,125.119507 
	C188.984314,124.526665 197.135818,125.685806 204.546738,130.071945 
	C213.089462,135.127914 216.212906,143.490540 216.842972,152.583679 
	C217.530228,162.502258 216.999130,172.505280 216.999130,182.891846 
	C196.309174,182.891846 175.909500,182.891846 155.004303,182.891846 
	C155.004303,187.239929 154.776260,191.199692 155.060654,195.122284 
	C155.436584,200.307556 159.424728,203.842651 164.826630,203.971939 
	C170.154892,204.099442 175.488571,204.001968 180.819885,203.999527 
	C189.505966,203.995529 192.786072,200.930298 193.133972,192.253387 
	C200.884186,192.253387 208.649628,192.253387 216.416473,192.253021 
	C218.942093,207.293762 209.635574,221.213974 192.822296,222.874496 
	C182.642334,223.879898 172.303741,224.363754 162.106277,223.805618 
	C151.691132,223.235550 140.971588,221.396179 135.479843,210.764359 
	C133.115677,206.187408 131.428238,200.783051 131.197968,195.675049 
	C130.605850,182.540070 130.886490,169.359390 131.029495,156.199280 
	C131.198090,140.685104 137.488632,129.428406 155.012665,126.177223 
	C155.012665,138.670761 155.012665,151.105255 155.012665,163.766632 
	C167.761032,163.766632 180.160278,163.766632 192.491943,163.766632 
	C192.693161,163.333725 192.924561,163.057251 192.941116,162.768448 
	C193.713776,149.292038 192.928131,143.714584 174.479172,143.992142 
	C170.847870,144.046768 167.215057,144.000000 163.003067,144.000000 
	C163.975418,142.418564 164.704544,141.232697 165.705048,139.790390 
z"/>
<path fill="#00205B" opacity="1.000000" stroke="none" 
	d="
M443.975708,146.000000 
	C438.728851,146.000000 433.975403,146.000000 428.031738,146.000000 
	C434.002289,138.744171 439.204956,132.360046 444.513306,126.065056 
	C445.045715,125.433685 446.230835,125.021095 447.093201,125.052383 
	C453.668365,125.290901 460.288513,125.267792 466.799255,126.085495 
	C477.913055,127.481300 486.562683,138.580215 486.940063,148.696289 
	C487.508453,163.934113 488.261536,179.205841 487.785370,194.427155 
	C487.479004,204.220993 484.946564,214.254898 475.063660,219.120605 
	C469.576569,221.822098 463.134918,223.294769 456.998169,223.800629 
	C447.729340,224.564651 438.305603,224.585388 429.029572,223.866302 
	C414.169556,222.714325 404.318237,219.598007 399.640381,204.084854 
	C398.667633,200.859055 398.115448,197.388199 398.071991,194.021210 
	C397.897797,180.525665 397.718262,167.019104 398.076263,153.530823 
	C398.463287,138.950119 404.800751,130.823135 418.626678,126.196404 
	C419.515289,125.899048 420.589935,126.157700 422.000000,126.157700 
	C422.000000,136.952530 422.000000,147.755630 422.000000,158.558731 
	C422.000000,169.390289 421.969910,180.221939 422.010223,191.053360 
	C422.038757,198.731323 425.402557,201.996185 433.141724,201.999435 
	C439.640656,202.002151 446.140015,201.952774 452.638428,202.011337 
	C461.797028,202.093887 463.551056,197.725723 463.871887,190.634659 
	C464.360931,179.825226 463.971313,168.977249 464.010010,158.145828 
	C464.036377,150.758011 460.491302,146.699585 452.464905,146.035339 
	C449.816803,145.816193 447.135315,146.000290 443.975708,146.000000 
z"/>
<path fill="#00205B" opacity="1.000000" stroke="none" 
	d="
M725.000000,169.000000 
	C725.000000,177.159454 725.030273,184.819046 724.991821,192.478302 
	C724.950195,200.753296 728.464661,204.702835 736.731445,204.028198 
	C739.003052,203.842819 741.302673,204.000000 743.791077,204.000000 
	C743.791077,211.348129 743.791077,218.295776 743.791077,225.994690 
	C732.495056,225.566101 720.886841,227.766449 710.511963,220.239761 
	C705.033447,216.265274 702.711975,210.760712 702.127075,204.631165 
	C701.297302,195.934616 701.084045,187.156509 701.045959,178.411346 
	C700.922852,150.105225 701.000000,121.798225 701.000000,93.491562 
	C701.000000,91.848961 701.000000,90.206360 701.000000,88.286133 
	C708.980957,88.286133 716.711731,88.286133 725.000000,88.286133 
	C725.000000,115.014069 725.000000,141.757034 725.000000,169.000000 
z"/>
<path fill="#00205B" opacity="1.000000" stroke="none" 
	d="
M655.000000,214.960846 
	C655.007202,186.153519 655.013733,157.841858 655.029968,129.530197 
	C655.030151,129.218201 655.156189,128.906265 655.287292,128.298187 
	C662.957092,128.298187 670.688965,128.298187 678.712158,128.298187 
	C678.712158,159.969788 678.712158,191.687653 678.712158,223.703186 
	C671.040100,223.703186 663.308228,223.703186 655.000000,223.703186 
	C655.000000,220.996567 655.000000,218.226547 655.000000,214.960846 
z"/>
<path fill="#00205B" opacity="1.000000" stroke="none" 
	d="
M519.960632,198.000000 
	C523.098206,198.000000 525.741577,198.000000 528.691650,198.000000 
	C528.691650,206.596664 528.691650,214.989700 528.691650,223.692902 
	C520.067810,223.692902 511.341949,223.692902 502.306519,223.692902 
	C502.306519,215.399841 502.306519,207.006805 502.306519,198.000000 
	C507.958984,198.000000 513.712708,198.000000 519.960632,198.000000 
z"/>
<path fill="#00205B" opacity="1.000000" stroke="none" 
	d="
M680.000000,102.963547 
	C680.000000,106.100464 680.000000,108.743393 680.000000,111.692322 
	C671.402283,111.692322 663.010254,111.692322 654.307373,111.692322 
	C654.307373,104.067947 654.307373,96.341515 654.307373,88.305801 
	C662.601013,88.305801 670.993469,88.305801 680.000000,88.305801 
	C680.000000,92.959785 680.000000,97.714676 680.000000,102.963547 
z"/>
<path fill="#007FB9" opacity="1.000000" stroke="none" 
	d="
M876.091980,141.494446 
	C911.247742,164.285324 946.334900,187.536819 981.851440,211.275238 
	C982.862122,211.862473 983.443359,211.962799 984.024658,212.063126 
	C984.024658,212.063126 984.022339,211.995453 983.989014,211.991150 
	C985.202026,214.052383 986.240662,216.282288 987.725830,218.158707 
	C1008.373596,244.245865 1005.010864,282.589539 979.996521,304.302887 
	C965.432190,316.945190 948.270691,322.009003 928.677368,319.202271 
	C915.166382,317.266846 903.714722,311.510132 894.268005,302.401825 
	C885.059082,293.522736 878.437744,282.625488 876.472046,269.232666 
	C876.085205,241.617493 876.054932,214.183105 875.974060,186.748856 
	C875.968323,184.796921 875.591797,182.846054 875.201233,180.529633 
	C875.343201,178.646149 875.944275,177.129883 875.956299,175.608963 
	C876.044800,164.391541 876.015625,153.173172 876.091980,141.494446 
z"/>
</svg>